<svg width="300" height="108" viewBox="0 0 300 108" fill="none" xmlns="http://www.w3.org/2000/svg">
<g clip-path="url(#clip0_1_3)">
<path d="M49.3245 48.0042C49.3245 51.6105 48.7256 55.0332 47.5153 58.2848C46.2929 61.5488 44.5816 64.397 42.3934 66.8539C40.2054 69.311 37.5893 71.2547 34.5699 72.7095C31.5383 74.1517 28.2255 74.8854 24.6072 74.8854C22.358 74.8854 20.2432 74.5675 18.2874 73.9563C16.3437 73.3327 14.4856 72.3425 12.7742 70.9735V73.6384H0V0H12.8598L12.9576 24.8396C14.4367 23.6539 16.197 22.7125 18.2385 22.0035C20.2677 21.2945 22.4192 20.94 24.6683 20.94C27.7977 20.94 30.8416 21.6368 33.7999 23.0181C36.7581 24.4117 39.3985 26.3187 41.6966 28.7512C44.0071 31.1716 45.8528 34.0198 47.2464 37.3081C48.6401 40.5965 49.3245 44.1537 49.3245 48.0042ZM36.379 48.0042C36.379 45.6329 36.0246 43.4691 35.3156 41.5256C34.6066 39.5695 33.5919 37.8949 32.3207 36.5136C31.0493 35.1201 29.5337 34.0565 27.7856 33.311C26.0252 32.5773 24.0938 32.2106 21.9424 32.2106C20.5855 32.2106 19.0208 32.4918 17.2239 33.0542C15.4513 33.6166 13.96 34.3377 12.7742 35.2178V59.8863C15.5736 62.4289 18.7152 63.7001 22.2113 63.7001C24.2404 63.7001 26.1107 63.3213 27.8711 62.5511C29.6192 61.781 31.1228 60.7052 32.3696 59.3116C33.6166 57.9181 34.6066 56.2679 35.3156 54.3486C36.0246 52.4172 36.379 50.3024 36.379 48.0042Z" fill="white"/>
<path d="M66.8906 74.8852H53.9331V23.507H66.8906V74.8852Z" fill="white"/>
<path d="M67.0742 18.6785H53.762V5.36636H67.0742V18.6785Z" fill="#91087D"/>
<path d="M103.148 72.4034C101.852 73.2226 100.336 73.8459 98.6246 74.2616C96.9132 74.6772 95.1896 74.8849 93.4782 74.8849C90.4587 74.8849 87.9161 74.5061 85.8504 73.7727C83.7844 73.0392 82.1219 71.8901 80.8751 70.3621C79.6404 68.8218 78.7359 66.866 78.1735 64.5067C77.6111 62.1351 77.3302 59.3604 77.3302 56.1575V33.7139H70.5945V27.9441C74.7264 26.2327 78.088 23.6901 80.655 20.3163C83.2343 16.9424 84.9947 12.5662 85.9359 7.18756H90.1043V22.1744H103.062V33.7139H90.1043V57.0499C90.1043 58.3457 90.2754 59.4092 90.5933 60.2404C90.9233 61.0717 91.3511 61.7196 91.8768 62.1963C92.4148 62.6731 93.026 62.9908 93.6983 63.1742C94.3827 63.3454 95.104 63.431 95.8742 63.431C96.8765 63.431 98.0868 63.2599 99.5169 62.9053C100.935 62.5509 102.145 61.9518 103.148 61.1328V72.4034Z" fill="white"/>
<path d="M183.008 23.4217L165.797 74.8854H154.709L144.502 44.2762L134.307 74.8854H123.208L105.91 23.4217H119.394L129.063 55.5345L138.744 23.4217H150.101L159.856 55.5345L169.525 23.4217H183.008Z" fill="#91087D"/>
<path d="M199.083 74.8852H186.125V23.507H199.083V74.8852Z" fill="#91087D"/>
<path d="M199.254 18.6785H185.954V5.36636H199.254V18.6785Z" fill="white"/>
<path d="M243.004 59.0915C243.004 61.6341 242.418 63.8957 241.231 65.876C240.045 67.8562 238.493 69.5187 236.599 70.8389C234.703 72.1715 232.565 73.1861 230.194 73.8584C227.834 74.5428 225.486 74.8851 223.176 74.8851C219.253 74.8851 215.659 74.1517 212.37 72.7092C209.082 71.2547 206.185 68.9319 203.703 65.7414L211.417 57.9302C212.957 59.886 214.73 61.4142 216.747 62.5021C218.751 63.6022 220.915 64.1523 223.213 64.1523C225.231 64.1523 226.905 63.7735 228.237 63.0398C229.558 62.2943 230.23 61.1942 230.23 59.715C230.23 58.1747 229.276 56.8912 227.393 55.8522C225.499 54.8131 222.834 53.7985 219.399 52.7839C217.395 52.1971 215.439 51.4392 213.544 50.5225C211.649 49.6057 209.974 48.4809 208.495 47.1607C207.016 45.8284 205.83 44.3004 204.938 42.589C204.058 40.8775 203.606 38.8849 203.606 36.6479C203.606 34.1543 204.192 31.9294 205.341 29.9492C206.49 27.9566 208.019 26.3064 209.877 24.9739C211.747 23.6416 213.874 22.6269 216.233 21.9178C218.605 21.2089 221.013 20.8543 223.445 20.8543C231.257 20.8543 237.663 23.8126 242.651 29.7168L235.021 37.4425C233.543 35.6089 231.855 34.1543 229.961 33.0907C228.067 32.0272 226.001 31.5016 223.751 31.5016C222.981 31.5016 222.174 31.5994 221.306 31.8072C220.451 32.0149 219.656 32.3084 218.91 32.6995C218.177 33.0786 217.566 33.5796 217.101 34.2031C216.624 34.8266 216.392 35.5234 216.392 36.2935C216.392 37.6504 217.284 38.8361 219.094 39.8384C220.903 40.841 223.482 41.8433 226.856 42.8579C229.043 43.5058 231.11 44.3369 233.066 45.3394C235.021 46.3417 236.734 47.5153 238.211 48.8476C239.691 50.1678 240.864 51.6837 241.722 53.3707C242.577 55.0576 243.004 56.9646 243.004 59.0915Z" fill="#91087D"/>
<path d="M298.464 47.8211C298.464 48.6524 298.417 49.5081 298.33 50.4004C298.245 51.2805 298.135 52.1973 298.025 53.1508H257.026C257.503 54.6177 258.175 56.0234 259.03 57.356C259.885 58.6883 260.937 59.8498 262.171 60.8154C263.418 61.7933 264.824 62.5634 266.389 63.1258C267.954 63.688 269.689 63.9692 271.585 63.9692C273.882 63.9692 276.193 63.5657 278.503 62.7712C280.813 61.9766 282.732 60.8888 284.272 59.5319L292.341 67.6119C288.797 70.2647 285.311 72.1473 281.913 73.2351C278.516 74.3353 274.921 74.8854 271.133 74.8854C267.293 74.8854 263.7 74.1763 260.362 72.7585C257.013 71.3281 254.116 69.409 251.66 66.9887C249.201 64.556 247.269 61.7078 245.852 58.4194C244.435 55.1434 243.725 51.6351 243.725 47.9066C243.725 44.1784 244.435 40.6822 245.852 37.3939C247.269 34.1178 249.226 31.2573 251.707 28.8369C254.19 26.4043 257.087 24.4851 260.4 23.0671C263.711 21.6492 267.257 20.9402 271.046 20.9402C274.652 20.9402 278.111 21.6003 281.425 22.9328C284.738 24.2651 287.671 26.111 290.214 28.4825C292.757 30.8418 294.761 33.6656 296.241 36.9537C297.719 40.23 298.464 43.8604 298.464 47.8211ZM285.067 42.8581C284.064 39.5942 282.269 36.9784 279.701 34.9979C277.122 33.0177 274.213 32.0275 270.96 32.0275C267.77 32.0275 264.898 33.0177 262.354 34.9979C259.813 36.9784 258.04 39.5942 257.026 42.8581H285.067Z" fill="#91087D"/>
<path d="M46.9162 97.622H44.5202V107.462H42.6255V97.622H40.4373V95.6662H46.9162V97.622ZM69.9587 107.462H63.3578V95.715H69.9587V97.6831H65.2769V100.592H67.5873V102.548H65.2769V105.494H69.9587V107.462ZM93.2579 107.462H89.7253C87.5371 107.462 86.4369 106.277 86.4369 103.893V99.0034C86.4369 96.8275 87.5127 95.7396 89.6642 95.7396H93.2579V97.6587H89.5417C88.7351 97.6587 88.344 98.0378 88.344 98.7956L88.356 103.93V104.003C88.356 105.005 88.6984 105.494 89.383 105.494H93.2579V107.462ZM109.797 107.462V95.715H111.729V100.592H114.956V95.715H116.863V107.462H114.956V102.548H111.729V107.462H109.797ZM140.614 107.462H138.377L135.578 100.519V107.462H133.671V95.715H135.615L138.695 103.441V95.715H140.614V107.462ZM162.826 98.1844C162.826 97.8298 162.618 97.6587 162.202 97.6587H159.916C159.525 97.6587 159.33 97.8298 159.33 98.1844V104.81C159.33 105.042 159.391 105.225 159.501 105.336C159.611 105.446 159.733 105.494 159.88 105.494H162.373C162.508 105.494 162.618 105.433 162.703 105.299C162.789 105.152 162.826 104.993 162.826 104.81V98.1844ZM164.733 105.201C164.72 106.705 163.999 107.462 162.569 107.462H159.598C158.156 107.462 157.435 106.729 157.435 105.274V97.8421C157.435 96.4119 158.095 95.7029 159.44 95.7029H162.581C164.012 95.7029 164.733 96.4119 164.733 97.8421V105.201ZM186.675 107.462H181.504V95.6418H183.411V105.482H186.675V107.462ZM208.397 98.1844C208.397 97.8298 208.19 97.6587 207.786 97.6587H205.488C205.097 97.6587 204.901 97.8298 204.901 98.1844V104.81C204.901 105.042 204.962 105.225 205.072 105.336C205.183 105.446 205.305 105.494 205.451 105.494H207.945C208.092 105.494 208.19 105.433 208.275 105.299C208.361 105.152 208.397 104.993 208.397 104.81V98.1844ZM210.304 105.201C210.292 106.705 209.571 107.462 208.141 107.462H205.17C203.728 107.462 203.007 106.729 203.007 105.274V97.8421C203.007 96.4119 203.679 95.7029 205.024 95.7029H208.153C209.583 95.7029 210.304 96.4119 210.304 97.8421V105.201ZM234.116 107.462H230.06C228.054 107.462 227.051 106.375 227.051 104.211V98.7833C227.051 96.7419 228.139 95.715 230.304 95.715H234.116V97.6831H229.986C229.29 97.6831 228.947 98.0378 228.947 98.7589V104.357C228.947 105.116 229.24 105.494 229.838 105.494H232.187V102.548H229.802V100.568H234.116V107.462ZM258.002 95.715L255.056 102.218V107.462H253.151V102.194L250.314 95.715H252.331L254.08 99.9569L254.104 100.03L254.116 100.006L255.985 95.715H258.002Z" fill="white"/>
<path d="M49.3245 48.0042C49.3245 51.6105 48.7256 55.0332 47.5153 58.2848C46.2929 61.5488 44.5816 64.397 42.3934 66.8539C40.2054 69.311 37.5893 71.2547 34.5699 72.7095C31.5383 74.1517 28.2255 74.8854 24.6072 74.8854C22.358 74.8854 20.2432 74.5675 18.2874 73.9563C16.3437 73.3327 14.4856 72.3425 12.7742 70.9735V73.6384H0V0H12.8598L12.9576 24.8396C14.4367 23.6539 16.197 22.7125 18.2385 22.0035C20.2677 21.2945 22.4192 20.94 24.6683 20.94C27.7977 20.94 30.8416 21.6368 33.7999 23.0181C36.7581 24.4117 39.3985 26.3187 41.6966 28.7512C44.0071 31.1716 45.8528 34.0198 47.2464 37.3081C48.6401 40.5965 49.3245 44.1537 49.3245 48.0042ZM36.379 48.0042C36.379 45.6329 36.0246 43.4691 35.3156 41.5256C34.6066 39.5695 33.5919 37.8949 32.3207 36.5136C31.0493 35.1201 29.5337 34.0565 27.7856 33.311C26.0252 32.5773 24.0938 32.2106 21.9424 32.2106C20.5855 32.2106 19.0208 32.4918 17.2239 33.0542C15.4513 33.6166 13.96 34.3377 12.7742 35.2178V59.8863C15.5736 62.4289 18.7152 63.7001 22.2113 63.7001C24.2404 63.7001 26.1107 63.3213 27.8711 62.5511C29.6192 61.781 31.1228 60.7052 32.3696 59.3116C33.6166 57.9181 34.6066 56.2679 35.3156 54.3486C36.0246 52.4172 36.379 50.3024 36.379 48.0042Z" fill="white"/>
<path d="M66.8906 74.8852H53.9331V23.507H66.8906V74.8852Z" fill="white"/>
<path d="M67.0742 18.6785H53.762V5.36636H67.0742V18.6785Z" fill="#91087D"/>
<path d="M103.148 72.4034C101.852 73.2226 100.336 73.8459 98.6246 74.2616C96.9132 74.6772 95.1896 74.8849 93.4782 74.8849C90.4587 74.8849 87.9161 74.5061 85.8504 73.7727C83.7844 73.0392 82.1219 71.8901 80.8751 70.3621C79.6404 68.8218 78.7359 66.866 78.1735 64.5067C77.6111 62.1351 77.3302 59.3604 77.3302 56.1575V33.7139H70.5945V27.9441C74.7264 26.2327 78.088 23.6901 80.655 20.3163C83.2343 16.9424 84.9947 12.5662 85.9359 7.18756H90.1043V22.1744H103.062V33.7139H90.1043V57.0499C90.1043 58.3457 90.2754 59.4092 90.5933 60.2404C90.9233 61.0717 91.3511 61.7196 91.8768 62.1963C92.4148 62.6731 93.026 62.9908 93.6983 63.1742C94.3827 63.3454 95.104 63.431 95.8742 63.431C96.8765 63.431 98.0868 63.2599 99.5169 62.9053C100.935 62.5509 102.145 61.9518 103.148 61.1328V72.4034Z" fill="white"/>
<path d="M183.008 23.4217L165.797 74.8854H154.709L144.502 44.2762L134.307 74.8854H123.208L105.91 23.4217H119.394L129.063 55.5345L138.744 23.4217H150.101L159.856 55.5345L169.525 23.4217H183.008Z" fill="#91087D"/>
<path d="M199.083 74.8852H186.125V23.507H199.083V74.8852Z" fill="#91087D"/>
<path d="M199.254 18.6785H185.954V5.36636H199.254V18.6785Z" fill="white"/>
<path d="M243.004 59.0915C243.004 61.6341 242.418 63.8957 241.231 65.876C240.045 67.8562 238.493 69.5187 236.599 70.8389C234.703 72.1715 232.565 73.1861 230.194 73.8584C227.834 74.5428 225.486 74.8851 223.176 74.8851C219.253 74.8851 215.659 74.1517 212.37 72.7092C209.082 71.2547 206.185 68.9319 203.703 65.7414L211.417 57.9302C212.957 59.886 214.73 61.4142 216.747 62.5021C218.751 63.6022 220.915 64.1523 223.213 64.1523C225.231 64.1523 226.905 63.7735 228.237 63.0398C229.558 62.2943 230.23 61.1942 230.23 59.715C230.23 58.1747 229.276 56.8912 227.393 55.8522C225.499 54.8131 222.834 53.7985 219.399 52.7839C217.395 52.1971 215.439 51.4392 213.544 50.5225C211.649 49.6057 209.974 48.4809 208.495 47.1607C207.016 45.8284 205.83 44.3004 204.938 42.589C204.058 40.8775 203.606 38.8849 203.606 36.6479C203.606 34.1543 204.192 31.9294 205.341 29.9492C206.49 27.9566 208.019 26.3064 209.877 24.9739C211.747 23.6416 213.874 22.6269 216.233 21.9178C218.605 21.2089 221.013 20.8543 223.445 20.8543C231.257 20.8543 237.663 23.8126 242.651 29.7168L235.021 37.4425C233.543 35.6089 231.855 34.1543 229.961 33.0907C228.067 32.0272 226.001 31.5016 223.751 31.5016C222.981 31.5016 222.174 31.5994 221.306 31.8072C220.451 32.0149 219.656 32.3084 218.91 32.6995C218.177 33.0786 217.566 33.5796 217.101 34.2031C216.624 34.8266 216.392 35.5234 216.392 36.2935C216.392 37.6504 217.284 38.8361 219.094 39.8384C220.903 40.841 223.482 41.8433 226.856 42.8579C229.043 43.5058 231.11 44.3369 233.066 45.3394C235.021 46.3417 236.734 47.5153 238.211 48.8476C239.691 50.1678 240.864 51.6837 241.722 53.3707C242.577 55.0576 243.004 56.9646 243.004 59.0915Z" fill="#91087D"/>
<path d="M298.464 47.8211C298.464 48.6524 298.417 49.5081 298.33 50.4004C298.245 51.2805 298.135 52.1973 298.025 53.1508H257.026C257.503 54.6177 258.175 56.0234 259.03 57.356C259.885 58.6883 260.937 59.8498 262.171 60.8154C263.418 61.7933 264.824 62.5634 266.389 63.1258C267.954 63.688 269.689 63.9692 271.585 63.9692C273.882 63.9692 276.193 63.5657 278.503 62.7712C280.813 61.9766 282.732 60.8888 284.272 59.5319L292.341 67.6119C288.797 70.2647 285.311 72.1473 281.913 73.2351C278.516 74.3353 274.921 74.8854 271.133 74.8854C267.293 74.8854 263.7 74.1763 260.362 72.7585C257.013 71.3281 254.116 69.409 251.66 66.9887C249.201 64.556 247.269 61.7078 245.852 58.4194C244.435 55.1434 243.725 51.6351 243.725 47.9066C243.725 44.1784 244.435 40.6822 245.852 37.3939C247.269 34.1178 249.226 31.2573 251.707 28.8369C254.19 26.4043 257.087 24.4851 260.4 23.0671C263.711 21.6492 267.257 20.9402 271.046 20.9402C274.652 20.9402 278.111 21.6003 281.425 22.9328C284.738 24.2651 287.671 26.111 290.214 28.4825C292.757 30.8418 294.761 33.6656 296.241 36.9537C297.719 40.23 298.464 43.8604 298.464 47.8211ZM285.067 42.8581C284.064 39.5942 282.269 36.9784 279.701 34.9979C277.122 33.0177 274.213 32.0275 270.96 32.0275C267.77 32.0275 264.898 33.0177 262.354 34.9979C259.813 36.9784 258.04 39.5942 257.026 42.8581H285.067Z" fill="#91087D"/>
<path d="M46.9162 97.622H44.5202V107.462H42.6255V97.622H40.4373V95.6662H46.9162V97.622ZM69.9587 107.462H63.3578V95.715H69.9587V97.6831H65.2769V100.592H67.5873V102.548H65.2769V105.494H69.9587V107.462ZM93.2579 107.462H89.7253C87.5371 107.462 86.4369 106.277 86.4369 103.893V99.0034C86.4369 96.8275 87.5127 95.7396 89.6642 95.7396H93.2579V97.6587H89.5417C88.7351 97.6587 88.344 98.0378 88.344 98.7956L88.356 103.93V104.003C88.356 105.005 88.6984 105.494 89.383 105.494H93.2579V107.462ZM109.797 107.462V95.715H111.729V100.592H114.956V95.715H116.863V107.462H114.956V102.548H111.729V107.462H109.797ZM140.614 107.462H138.377L135.578 100.519V107.462H133.671V95.715H135.615L138.695 103.441V95.715H140.614V107.462ZM162.826 98.1844C162.826 97.8298 162.618 97.6587 162.202 97.6587H159.916C159.525 97.6587 159.33 97.8298 159.33 98.1844V104.81C159.33 105.042 159.391 105.225 159.501 105.336C159.611 105.446 159.733 105.494 159.88 105.494H162.373C162.508 105.494 162.618 105.433 162.703 105.299C162.789 105.152 162.826 104.993 162.826 104.81V98.1844ZM164.733 105.201C164.72 106.705 163.999 107.462 162.569 107.462H159.598C158.156 107.462 157.435 106.729 157.435 105.274V97.8421C157.435 96.4119 158.095 95.7029 159.44 95.7029H162.581C164.012 95.7029 164.733 96.4119 164.733 97.8421V105.201ZM186.675 107.462H181.504V95.6418H183.411V105.482H186.675V107.462ZM208.397 98.1844C208.397 97.8298 208.19 97.6587 207.786 97.6587H205.488C205.097 97.6587 204.901 97.8298 204.901 98.1844V104.81C204.901 105.042 204.962 105.225 205.072 105.336C205.183 105.446 205.305 105.494 205.451 105.494H207.945C208.092 105.494 208.19 105.433 208.275 105.299C208.361 105.152 208.397 104.993 208.397 104.81V98.1844ZM210.304 105.201C210.292 106.705 209.571 107.462 208.141 107.462H205.17C203.728 107.462 203.007 106.729 203.007 105.274V97.8421C203.007 96.4119 203.679 95.7029 205.024 95.7029H208.153C209.583 95.7029 210.304 96.4119 210.304 97.8421V105.201ZM234.116 107.462H230.06C228.054 107.462 227.051 106.375 227.051 104.211V98.7833C227.051 96.7419 228.139 95.715 230.304 95.715H234.116V97.6831H229.986C229.29 97.6831 228.947 98.0378 228.947 98.7589V104.357C228.947 105.116 229.24 105.494 229.838 105.494H232.187V102.548H229.802V100.568H234.116V107.462ZM258.002 95.715L255.056 102.218V107.462H253.151V102.194L250.314 95.715H252.331L254.08 99.9569L254.104 100.03L254.116 100.006L255.985 95.715H258.002Z" fill="white"/>
</g>
<defs>
<clipPath id="clip0_1_3">
<rect width="300" height="107.463" fill="white"/>
</clipPath>
</defs>
</svg>
