<svg width="256" height="155" viewBox="0 0 256 155" fill="none" xmlns="http://www.w3.org/2000/svg">
<g clip-path="url(#clip0_10_2)">
<path d="M141.63 0L127.44 24.58L113.25 0H66L127.44 106.42L188.88 0H141.63Z" fill="#4DBA87"/>
<path d="M141.63 0L127.44 24.58L113.25 0H90.58L127.44 63.85L164.3 0H141.63Z" fill="#425466"/>
</g>
<path d="M88.05 147.28C87.5433 147.28 87.13 147.16 86.81 146.92C86.49 146.68 86.2367 146.32 86.05 145.84L75.05 120.68C74.8633 120.227 74.81 119.853 74.89 119.56C74.97 119.24 75.1433 118.987 75.41 118.8C75.7033 118.613 76.0367 118.52 76.41 118.52C76.9167 118.52 77.29 118.64 77.53 118.88C77.7967 119.093 78.01 119.413 78.17 119.84L88.73 144.36H87.45L97.97 119.8C98.1567 119.4 98.3833 119.093 98.65 118.88C98.9167 118.64 99.29 118.52 99.77 118.52C100.143 118.52 100.45 118.613 100.69 118.8C100.957 118.987 101.117 119.24 101.17 119.56C101.25 119.88 101.197 120.253 101.01 120.68L90.01 145.84C89.8233 146.32 89.57 146.68 89.25 146.92C88.9567 147.16 88.5567 147.28 88.05 147.28ZM109.756 147.36C108.183 147.36 106.876 147.08 105.836 146.52C104.823 145.933 104.049 145.067 103.516 143.92C103.009 142.773 102.756 141.347 102.756 139.64V128.92C102.756 128.36 102.889 127.947 103.156 127.68C103.449 127.413 103.849 127.28 104.356 127.28C104.889 127.28 105.289 127.413 105.556 127.68C105.849 127.947 105.996 128.36 105.996 128.92V139.6C105.996 141.307 106.343 142.587 107.036 143.44C107.756 144.267 108.876 144.68 110.396 144.68C112.049 144.68 113.396 144.12 114.436 143C115.476 141.88 115.996 140.413 115.996 138.6V128.92C115.996 128.36 116.129 127.947 116.396 127.68C116.689 127.413 117.103 127.28 117.636 127.28C118.143 127.28 118.529 127.413 118.796 127.68C119.089 127.947 119.236 128.36 119.236 128.92V145.6C119.236 146.72 118.716 147.28 117.676 147.28C117.169 147.28 116.769 147.133 116.476 146.84C116.209 146.547 116.076 146.133 116.076 145.6V141.96L116.596 142.52C116.063 144.093 115.183 145.293 113.956 146.12C112.756 146.947 111.356 147.36 109.756 147.36ZM134.058 147.36C132.004 147.36 130.231 146.96 128.738 146.16C127.271 145.333 126.124 144.173 125.298 142.68C124.498 141.187 124.098 139.4 124.098 137.32C124.098 135.293 124.498 133.533 125.298 132.04C126.098 130.52 127.191 129.333 128.578 128.48C129.991 127.627 131.618 127.2 133.458 127.2C134.764 127.2 135.938 127.427 136.978 127.88C138.018 128.307 138.898 128.933 139.618 129.76C140.364 130.587 140.924 131.587 141.298 132.76C141.698 133.933 141.898 135.253 141.898 136.72C141.898 137.147 141.778 137.467 141.538 137.68C141.298 137.867 140.951 137.96 140.498 137.96H126.578V135.84H139.738L139.098 136.36C139.098 134.92 138.884 133.707 138.458 132.72C138.031 131.707 137.404 130.933 136.578 130.4C135.778 129.867 134.764 129.6 133.538 129.6C132.178 129.6 131.018 129.92 130.058 130.56C129.124 131.173 128.418 132.04 127.938 133.16C127.458 134.253 127.218 135.533 127.218 137V137.24C127.218 139.693 127.804 141.56 128.978 142.84C130.178 144.12 131.871 144.76 134.058 144.76C134.964 144.76 135.858 144.64 136.738 144.4C137.644 144.16 138.524 143.76 139.378 143.2C139.751 142.96 140.084 142.853 140.378 142.88C140.698 142.88 140.951 142.973 141.138 143.16C141.324 143.32 141.444 143.533 141.498 143.8C141.578 144.04 141.551 144.307 141.418 144.6C141.311 144.893 141.084 145.147 140.738 145.36C139.858 146 138.818 146.493 137.618 146.84C136.418 147.187 135.231 147.36 134.058 147.36ZM148.147 147.16C147.48 147.16 146.947 146.96 146.547 146.56C146.147 146.133 145.947 145.6 145.947 144.96C145.947 144.32 146.147 143.8 146.547 143.4C146.947 142.973 147.48 142.76 148.147 142.76C148.814 142.76 149.334 142.973 149.707 143.4C150.107 143.8 150.307 144.32 150.307 144.96C150.307 145.6 150.107 146.133 149.707 146.56C149.334 146.96 148.814 147.16 148.147 147.16ZM152.359 154.64C151.959 154.667 151.639 154.6 151.399 154.44C151.132 154.28 150.959 154.067 150.879 153.8C150.772 153.56 150.746 153.307 150.799 153.04C150.826 152.8 150.932 152.587 151.119 152.4C151.306 152.213 151.559 152.12 151.879 152.12C153.346 152.04 154.426 151.64 155.119 150.92C155.839 150.227 156.199 149.12 156.199 147.6V128.92C156.199 128.387 156.332 127.987 156.599 127.72C156.892 127.427 157.306 127.28 157.839 127.28C158.346 127.28 158.732 127.427 158.999 127.72C159.292 127.987 159.439 128.387 159.439 128.92V147.36C159.439 148.987 159.159 150.32 158.599 151.36C158.066 152.427 157.279 153.213 156.239 153.72C155.199 154.253 153.906 154.56 152.359 154.64ZM157.799 122.88C157.132 122.88 156.612 122.707 156.239 122.36C155.866 121.987 155.679 121.493 155.679 120.88C155.679 120.24 155.866 119.76 156.239 119.44C156.612 119.093 157.132 118.92 157.799 118.92C158.492 118.92 159.026 119.093 159.399 119.44C159.772 119.76 159.959 120.24 159.959 120.88C159.959 121.493 159.772 121.987 159.399 122.36C159.026 122.707 158.492 122.88 157.799 122.88ZM172.092 147.36C170.892 147.36 169.679 147.213 168.452 146.92C167.252 146.627 166.132 146.12 165.092 145.4C164.826 145.213 164.639 145 164.532 144.76C164.426 144.493 164.386 144.24 164.412 144C164.466 143.733 164.572 143.507 164.732 143.32C164.919 143.133 165.132 143.027 165.372 143C165.639 142.947 165.932 143 166.252 143.16C167.292 143.8 168.292 144.253 169.252 144.52C170.239 144.76 171.212 144.88 172.172 144.88C173.692 144.88 174.839 144.6 175.612 144.04C176.386 143.48 176.772 142.72 176.772 141.76C176.772 141.013 176.519 140.427 176.012 140C175.506 139.547 174.706 139.2 173.612 138.96L169.972 138.16C168.292 137.813 167.039 137.213 166.212 136.36C165.412 135.507 165.012 134.4 165.012 133.04C165.012 131.84 165.319 130.813 165.932 129.96C166.572 129.08 167.466 128.4 168.612 127.92C169.759 127.44 171.092 127.2 172.612 127.2C173.786 127.2 174.892 127.36 175.932 127.68C176.999 127.973 177.959 128.453 178.812 129.12C179.079 129.307 179.252 129.533 179.332 129.8C179.439 130.04 179.452 130.293 179.372 130.56C179.319 130.8 179.199 131.013 179.012 131.2C178.826 131.36 178.599 131.453 178.332 131.48C178.066 131.507 177.786 131.427 177.492 131.24C176.692 130.707 175.879 130.32 175.052 130.08C174.226 129.813 173.412 129.68 172.612 129.68C171.119 129.68 169.986 129.973 169.212 130.56C168.439 131.147 168.052 131.92 168.052 132.88C168.052 133.627 168.292 134.24 168.772 134.72C169.252 135.2 169.999 135.547 171.012 135.76L174.652 136.52C176.386 136.893 177.679 137.493 178.532 138.32C179.412 139.12 179.852 140.213 179.852 141.6C179.852 143.36 179.146 144.76 177.732 145.8C176.319 146.84 174.439 147.36 172.092 147.36Z" fill="white"/>
<defs>
<clipPath id="clip0_10_2">
<rect width="122.88" height="106.42" fill="white" transform="translate(66)"/>
</clipPath>
</defs>
</svg>
